# xmcd CD database file
#
# Track frame offsets:
#	150
#	22475
#	43302
#	71630
#	93187
#	117792
#	145415
#	172737
#	188520
#	214095
#	238642
#	263880
#	282087
#	308722
#
# Disc length: 4329 seconds
#
# Revision: 0
# Processed by: cddbd v1.4PL0 Copyright (c) Steve Scherf et al.
# Submitted via: CDex 1.50beta10
#
DISCID=c810e70e
DTITLE=Sonny Stitt - Don Patterson - Legends of acid jazz vol. 2 (Funk you! (1-6) - Sonny Stitt/Soul electricity! (7-14))
DYEAR=1968
DGENRE=Jazz
TTITLE0=Ratio and proportion
TTITLE1=Airegin
TTITLE2=Little Angie
TTITLE3=My man string
TTITLE4=Funk in 3/4
TTITLE5=It's you or no one
TTITLE6=All the things you are
TTITLE7=Lover man (Oh, where can you be ?)
TTITLE8=P.S. I love you
TTITLE9=Stella by starlight
TTITLE10=Bye bye blackbird
TTITLE11=Over the rainbow
TTITLE12=Candy
TTITLE13=Strike up the band
EXTD=YEAR: 1968
EXTT0=
EXTT1=
EXTT2=
EXTT3=
EXTT4=
EXTT5=
EXTT6=
EXTT7=
EXTT8=
EXTT9=
EXTT10=
EXTT11=
EXTT12=
EXTT13=
PLAYORDER=
